<?xml version="1.0" encoding="UTF-8"?>
<!DOCTYPE svg PUBLIC "-//W3C//DTD SVG 1.1//EN" "http://www.w3.org/Graphics/SVG/1.1/DTD/svg11.dtd">
<svg xmlns="http://www.w3.org/2000/svg" version="1.1" width="302px" height="88px" style="shape-rendering:geometricPrecision; text-rendering:geometricPrecision; image-rendering:optimizeQuality; fill-rule:evenodd; clip-rule:evenodd" xmlns:xlink="http://www.w3.org/1999/xlink">
<g><path style="opacity:1" fill="#fdfdfd" d="M -0.5,-0.5 C 100.167,-0.5 200.833,-0.5 301.5,-0.5C 301.5,28.8333 301.5,58.1667 301.5,87.5C 200.833,87.5 100.167,87.5 -0.5,87.5C -0.5,58.1667 -0.5,28.8333 -0.5,-0.5 Z"/></g>
<g><path style="opacity:1" fill="#0e0e0e" d="M 47.5,23.5 C 38.9177,24.4699 30.2511,24.8032 21.5,24.5C 21.1786,30.0262 21.5119,35.3595 22.5,40.5C 29.175,40.3337 35.8417,40.5004 42.5,41C 43.8333,44.3333 43.8333,47.6667 42.5,51C 35.8417,51.4996 29.175,51.6663 22.5,51.5C 21.5098,57.6446 21.1765,63.9779 21.5,70.5C 29.8333,70.5 38.1667,70.5 46.5,70.5C 47.4767,73.2869 47.81,76.2869 47.5,79.5C 34.913,80.4798 22.2464,80.8131 9.5,80.5C 9.21719,79.7109 8.71719,79.0442 8,78.5C 7.33333,57.5 7.33333,36.5 8,15.5C 8.5,15 9,14.5 9.5,14C 21.8333,13.3333 34.1667,13.3333 46.5,14C 47.4505,17.0567 47.7839,20.2234 47.5,23.5 Z"/></g>
<g><path style="opacity:1" fill="#bdbdbd" d="M 47.5,23.5 C 39.5671,25.4684 31.2337,26.135 22.5,25.5C 22.5,30.5 22.5,35.5 22.5,40.5C 21.5119,35.3595 21.1786,30.0262 21.5,24.5C 30.2511,24.8032 38.9177,24.4699 47.5,23.5 Z"/></g>
<g><path style="opacity:1" fill="#a0a0a0" d="M 124.5,32.5 C 122.097,32.448 119.764,32.7814 117.5,33.5C 118.312,32.0069 119.645,31.3402 121.5,31.5C 122.726,31.5195 123.726,31.8529 124.5,32.5 Z"/></g>
<g><path style="opacity:1" fill="#161616" d="M 71.5,33.5 C 71.5,34.5 71.5,35.5 71.5,36.5C 69.3537,36.1218 67.187,35.7885 65,35.5C 62.9919,35.3068 61.4919,35.9735 60.5,37.5C 58.8267,38.343 57.66,39.6763 57,41.5C 55.2886,47.6938 56.7886,52.8604 61.5,57C 64.367,57.8007 67.0336,57.6341 69.5,56.5C 71.0481,56.8212 71.7148,57.8212 71.5,59.5C 56.2991,62.4642 50.1324,56.1309 53,40.5C 57.1938,32.8104 63.3605,30.477 71.5,33.5 Z"/></g>
<g><path style="opacity:1" fill="#181818" d="M 84.5,32.5 C 99.3207,31.1591 105.154,37.8258 102,52.5C 97.9682,60.0369 91.8015,62.5369 83.5,60C 76.4979,54.2138 74.6646,47.0472 78,38.5C 80.0627,36.2659 82.2294,34.2659 84.5,32.5 Z"/></g>
<g><path style="opacity:1" fill="#d0d0d0" d="M 115.5,34.5 C 115.44,35.0431 115.107,35.3764 114.5,35.5C 113.158,33.9951 111.492,33.3285 109.5,33.5C 109.5,42.1667 109.5,50.8333 109.5,59.5C 109.5,59.8333 109.5,60.1667 109.5,60.5C 108.506,51.3483 108.173,42.015 108.5,32.5C 111.211,32.1849 113.544,32.8516 115.5,34.5 Z"/></g>
<g><path style="opacity:1" fill="#171717" d="M 124.5,32.5 C 126.716,33.2026 128.549,34.5359 130,36.5C 133.66,32.6326 138.16,31.466 143.5,33C 144.381,33.7083 145.047,34.5416 145.5,35.5C 147.272,43.3719 147.938,51.3719 147.5,59.5C 146.167,59.5 144.833,59.5 143.5,59.5C 143.666,52.4921 143.5,45.4921 143,38.5C 142.292,37.6195 141.458,36.9528 140.5,36.5C 139.726,35.8529 138.726,35.5195 137.5,35.5C 135.645,35.3402 134.312,36.0069 133.5,37.5C 132.094,37.9731 131.427,38.9731 131.5,40.5C 130.51,46.6446 130.177,52.9779 130.5,59.5C 129.167,59.5 127.833,59.5 126.5,59.5C 126.666,52.4921 126.5,45.4921 126,38.5C 123.005,35.0213 119.839,34.688 116.5,37.5C 115.094,37.9731 114.427,38.9731 114.5,40.5C 113.51,46.6446 113.177,52.9779 113.5,59.5C 112.167,59.5 110.833,59.5 109.5,59.5C 109.5,50.8333 109.5,42.1667 109.5,33.5C 111.492,33.3285 113.158,33.9951 114.5,35.5C 115.107,35.3764 115.44,35.0431 115.5,34.5C 116.167,34.1667 116.833,33.8333 117.5,33.5C 119.764,32.7814 122.097,32.448 124.5,32.5 Z"/></g>
<g><path style="opacity:1" fill="#c6c6c6" d="M 161.5,34.5 C 160.012,37.1864 159.345,36.8531 159.5,33.5C 158.167,33.5 156.833,33.5 155.5,33.5C 155.5,42.1667 155.5,50.8333 155.5,59.5C 156.833,59.5 158.167,59.5 159.5,59.5C 159.177,52.9779 159.51,46.6446 160.5,40.5C 160.5,47.1667 160.5,53.8333 160.5,60.5C 158.5,60.5 156.5,60.5 154.5,60.5C 154.5,51.1667 154.5,41.8333 154.5,32.5C 157.211,32.1849 159.544,32.8516 161.5,34.5 Z"/></g>
<g><path style="opacity:1" fill="#161616" d="M 193.5,41.5 C 193.5,47.5 193.5,53.5 193.5,59.5C 192.167,59.5 190.833,59.5 189.5,59.5C 189.824,52.6457 189.491,45.979 188.5,39.5C 187.043,35.9509 184.377,34.7842 180.5,36C 178.859,37.129 177.859,38.629 177.5,40.5C 176.51,46.6446 176.177,52.9779 176.5,59.5C 175.167,59.5 173.833,59.5 172.5,59.5C 172.823,52.9779 172.49,46.6446 171.5,40.5C 170.457,36.3149 167.791,34.8149 163.5,36C 161.859,37.129 160.859,38.629 160.5,40.5C 159.51,46.6446 159.177,52.9779 159.5,59.5C 158.167,59.5 156.833,59.5 155.5,59.5C 155.5,50.8333 155.5,42.1667 155.5,33.5C 156.833,33.5 158.167,33.5 159.5,33.5C 159.345,36.8531 160.012,37.1864 161.5,34.5C 166.793,31.4329 171.626,32.0996 176,36.5C 179.66,32.6326 184.16,31.466 189.5,33C 191.782,35.3974 193.116,38.2307 193.5,41.5 Z"/></g>
<g><path style="opacity:1" fill="#141414" d="M 222.5,39.5 C 222.5,42.1667 222.5,44.8333 222.5,47.5C 216.167,47.5 209.833,47.5 203.5,47.5C 203.263,48.791 203.596,49.791 204.5,50.5C 206.382,57.1416 210.715,59.3082 217.5,57C 218.416,56.7216 219.082,56.2216 219.5,55.5C 220.573,56.2506 220.74,57.2506 220,58.5C 218.698,59.0848 217.531,59.7515 216.5,60.5C 213.5,60.5 210.5,60.5 207.5,60.5C 207.027,59.0937 206.027,58.427 204.5,58.5C 202.412,56.6644 201.079,54.3311 200.5,51.5C 200.467,47.1311 200.8,42.7978 201.5,38.5C 205.751,32.3208 211.417,30.8208 218.5,34C 220.439,35.4321 221.772,37.2654 222.5,39.5 Z"/></g>
<g><path style="opacity:1" fill="#b3b3b3" d="M 235.5,34.5 C 234.012,37.1864 233.345,36.8531 233.5,33.5C 232.167,33.5 230.833,33.5 229.5,33.5C 229.5,42.1667 229.5,50.8333 229.5,59.5C 230.833,59.5 232.167,59.5 233.5,59.5C 233.177,52.9779 233.51,46.6446 234.5,40.5C 234.5,47.1667 234.5,53.8333 234.5,60.5C 232.5,60.5 230.5,60.5 228.5,60.5C 228.5,51.1667 228.5,41.8333 228.5,32.5C 231.211,32.1849 233.544,32.8516 235.5,34.5 Z"/></g>
<g><path style="opacity:1" fill="#121212" d="M 242.5,32.5 C 242.5,33.5 242.5,34.5 242.5,35.5C 240.585,35.2155 238.919,35.5489 237.5,36.5C 236.026,37.4363 235.026,38.7697 234.5,40.5C 233.51,46.6446 233.177,52.9779 233.5,59.5C 232.167,59.5 230.833,59.5 229.5,59.5C 229.5,50.8333 229.5,42.1667 229.5,33.5C 230.833,33.5 232.167,33.5 233.5,33.5C 233.345,36.8531 234.012,37.1864 235.5,34.5C 237.479,32.8325 239.812,32.1658 242.5,32.5 Z"/></g>
<g><path style="opacity:1" fill="#171717" d="M 265.5,33.5 C 265.5,34.5 265.5,35.5 265.5,36.5C 263.354,36.1218 261.187,35.7885 259,35.5C 256.992,35.3068 255.492,35.9735 254.5,37.5C 252.827,38.343 251.66,39.6763 251,41.5C 248.607,53.2612 253.107,58.2612 264.5,56.5C 265.404,57.209 265.737,58.209 265.5,59.5C 250.243,62.4086 244.077,56.0753 247,40.5C 251.149,32.7049 257.315,30.3716 265.5,33.5 Z"/></g>
<g><path style="opacity:1" fill="#181818" d="M 293.5,41.5 C 293.5,43.5 293.5,45.5 293.5,47.5C 287.167,47.5 280.833,47.5 274.5,47.5C 274.263,48.791 274.596,49.791 275.5,50.5C 276.397,55.2338 279.231,57.5671 284,57.5C 286.341,57.1705 288.508,56.5038 290.5,55.5C 291.573,56.2506 291.74,57.2506 291,58.5C 289.698,59.0848 288.531,59.7515 287.5,60.5C 278.917,62.9167 273.417,59.9167 271,51.5C 268.322,40.908 272.155,34.5746 282.5,32.5C 288.734,32.4412 292.401,35.4412 293.5,41.5 Z"/></g>
<g><path style="opacity:1" fill="#909090" d="M 140.5,36.5 C 138.097,36.448 135.764,36.7814 133.5,37.5C 134.312,36.0069 135.645,35.3402 137.5,35.5C 138.726,35.5195 139.726,35.8529 140.5,36.5 Z"/></g>
<g><path style="opacity:1" fill="#919191" d="M 214.5,36.5 C 212.097,36.448 209.764,36.7814 207.5,37.5C 208.312,36.0069 209.645,35.3402 211.5,35.5C 212.726,35.5195 213.726,35.8529 214.5,36.5 Z"/></g>
<g><path style="opacity:1" fill="#565656" d="M 242.5,32.5 C 243.434,33.5676 243.768,34.901 243.5,36.5C 241.5,36.5 239.5,36.5 237.5,36.5C 238.919,35.5489 240.585,35.2155 242.5,35.5C 242.5,34.5 242.5,33.5 242.5,32.5 Z"/></g>
<g><path style="opacity:1" fill="#b9b9b9" d="M 71.5,33.5 C 72.4345,34.5676 72.7678,35.901 72.5,37.5C 68.5,37.5 64.5,37.5 60.5,37.5C 61.4919,35.9735 62.9919,35.3068 65,35.5C 67.187,35.7885 69.3537,36.1218 71.5,36.5C 71.5,35.5 71.5,34.5 71.5,33.5 Z"/></g>
<g><path style="opacity:1" fill="#b8b8b8" d="M 265.5,33.5 C 266.434,34.5676 266.768,35.901 266.5,37.5C 262.5,37.5 258.5,37.5 254.5,37.5C 255.492,35.9735 256.992,35.3068 259,35.5C 261.187,35.7885 263.354,36.1218 265.5,36.5C 265.5,35.5 265.5,34.5 265.5,33.5 Z"/></g>
<g><path style="opacity:1" fill="#f2f2f2" d="M 92.5,56.5 C 89.7628,56.5987 87.0961,56.2653 84.5,55.5C 79.2138,49.3314 79.2138,43.1647 84.5,37C 89.946,34.3821 94.446,35.5488 98,40.5C 98.6667,44.1667 98.6667,47.8333 98,51.5C 96.9243,54.079 95.091,55.7457 92.5,56.5 Z"/></g>
<g><path style="opacity:1" fill="#f3f3f3" d="M 214.5,36.5 C 216.19,36.8564 217.19,37.8564 217.5,39.5C 217.5,40.8333 217.5,42.1667 217.5,43.5C 213.167,43.5 208.833,43.5 204.5,43.5C 204.025,40.6874 205.025,38.6874 207.5,37.5C 209.764,36.7814 212.097,36.448 214.5,36.5 Z"/></g>
<g><path style="opacity:1" fill="#eeeeee" d="M 288.5,39.5 C 288.5,40.8333 288.5,42.1667 288.5,43.5C 283.968,43.8182 279.634,43.4849 275.5,42.5C 276.591,36.9126 279.924,34.7459 285.5,36C 286.71,37.0391 287.71,38.2058 288.5,39.5 Z"/></g>
<g><path style="opacity:1" fill="#b7b7b7" d="M 131.5,40.5 C 131.5,47.1667 131.5,53.8333 131.5,60.5C 129.5,60.5 127.5,60.5 125.5,60.5C 125.666,53.4921 125.5,46.4921 125,39.5C 122.519,37.6863 119.685,37.0196 116.5,37.5C 119.839,34.688 123.005,35.0213 126,38.5C 126.5,45.4921 126.666,52.4921 126.5,59.5C 127.833,59.5 129.167,59.5 130.5,59.5C 130.177,52.9779 130.51,46.6446 131.5,40.5 Z"/></g>
<g><path style="opacity:1" fill="#afafaf" d="M 145.5,35.5 C 146.79,36.0577 147.623,37.0577 148,38.5C 148.5,45.8258 148.666,53.1591 148.5,60.5C 146.5,60.5 144.5,60.5 142.5,60.5C 142.666,53.4921 142.5,46.4921 142,39.5C 140.961,38.7562 140.461,37.7562 140.5,36.5C 141.458,36.9528 142.292,37.6195 143,38.5C 143.5,45.4921 143.666,52.4921 143.5,59.5C 144.833,59.5 146.167,59.5 147.5,59.5C 147.938,51.3719 147.272,43.3719 145.5,35.5 Z"/></g>
<g><path style="opacity:1" fill="#b4b4b4" d="M 188.5,39.5 C 189.491,45.979 189.824,52.6457 189.5,59.5C 190.833,59.5 192.167,59.5 193.5,59.5C 193.5,53.5 193.5,47.5 193.5,41.5C 194.49,47.6446 194.823,53.9779 194.5,60.5C 192.5,60.5 190.5,60.5 188.5,60.5C 188.5,53.5 188.5,46.5 188.5,39.5 Z"/></g>
<g><path style="opacity:1" fill="#979797" d="M 114.5,40.5 C 114.5,47.1667 114.5,53.8333 114.5,60.5C 112.833,60.5 111.167,60.5 109.5,60.5C 109.5,60.1667 109.5,59.8333 109.5,59.5C 110.833,59.5 112.167,59.5 113.5,59.5C 113.177,52.9779 113.51,46.6446 114.5,40.5 Z"/></g>
<g><path style="opacity:1" fill="#999999" d="M 217.5,39.5 C 218.451,40.9187 218.784,42.5853 218.5,44.5C 213.637,44.8195 208.97,44.4861 204.5,43.5C 208.833,43.5 213.167,43.5 217.5,43.5C 217.5,42.1667 217.5,40.8333 217.5,39.5 Z"/></g>
<g><path style="opacity:1" fill="#909090" d="M 288.5,39.5 C 289.451,40.9187 289.784,42.5853 289.5,44.5C 284.456,44.8275 279.456,44.4941 274.5,43.5C 274.624,42.8933 274.957,42.56 275.5,42.5C 279.634,43.4849 283.968,43.8182 288.5,43.5C 288.5,42.1667 288.5,40.8333 288.5,39.5 Z"/></g>
<g><path style="opacity:1" fill="#c5c5c5" d="M 171.5,40.5 C 172.49,46.6446 172.823,52.9779 172.5,59.5C 173.833,59.5 175.167,59.5 176.5,59.5C 176.177,52.9779 176.51,46.6446 177.5,40.5C 177.5,47.1667 177.5,53.8333 177.5,60.5C 175.5,60.5 173.5,60.5 171.5,60.5C 171.5,53.8333 171.5,47.1667 171.5,40.5 Z"/></g>
<g><path style="opacity:1" fill="#4f4f4f" d="M 201.5,38.5 C 200.8,42.7978 200.467,47.1311 200.5,51.5C 199.84,50.036 199.507,48.3693 199.5,46.5C 199.382,43.5143 200.048,40.8476 201.5,38.5 Z"/></g>
<g><path style="opacity:1" fill="#9f9f9f" d="M 222.5,39.5 C 223.477,42.2869 223.81,45.2869 223.5,48.5C 216.745,47.8771 210.412,48.5437 204.5,50.5C 203.596,49.791 203.263,48.791 203.5,47.5C 209.833,47.5 216.167,47.5 222.5,47.5C 222.5,44.8333 222.5,42.1667 222.5,39.5 Z"/></g>
<g><path style="opacity:1" fill="#a2a2a2" d="M 293.5,41.5 C 294.468,43.6074 294.802,45.9407 294.5,48.5C 287.745,47.8771 281.412,48.5437 275.5,50.5C 274.596,49.791 274.263,48.791 274.5,47.5C 280.833,47.5 287.167,47.5 293.5,47.5C 293.5,45.5 293.5,43.5 293.5,41.5 Z"/></g>
<g><path style="opacity:1" fill="#949494" d="M 84.5,55.5 C 87.0961,56.2653 89.7628,56.5987 92.5,56.5C 91.5514,57.1524 90.3847,57.4857 89,57.5C 86.9919,57.6932 85.4919,57.0265 84.5,55.5 Z"/></g>
<g><path style="opacity:1" fill="#888888" d="M 69.5,56.5 C 70.209,55.596 71.209,55.2627 72.5,55.5C 72.7678,57.099 72.4345,58.4324 71.5,59.5C 71.7148,57.8212 71.0481,56.8212 69.5,56.5 Z"/></g>
<g><path style="opacity:1" fill="#828282" d="M 264.5,56.5 C 265.472,55.2486 266.139,55.582 266.5,57.5C 266.457,58.4164 266.124,59.0831 265.5,59.5C 265.737,58.209 265.404,57.209 264.5,56.5 Z"/></g>
<g><path style="opacity:1" fill="#797979" d="M 204.5,58.5 C 206.027,58.427 207.027,59.0937 207.5,60.5C 205.973,60.573 204.973,59.9063 204.5,58.5 Z"/></g>
<g><path style="opacity:1" fill="#a4a4a4" d="M 219.5,55.5 C 219.56,54.9569 219.893,54.6236 220.5,54.5C 222.574,58.8386 221.241,60.8386 216.5,60.5C 217.531,59.7515 218.698,59.0848 220,58.5C 220.74,57.2506 220.573,56.2506 219.5,55.5 Z"/></g>
<g><path style="opacity:1" fill="#adadad" d="M 290.5,55.5 C 290.56,54.9569 290.893,54.6236 291.5,54.5C 293.574,58.8386 292.241,60.8386 287.5,60.5C 288.531,59.7515 289.698,59.0848 291,58.5C 291.74,57.2506 291.573,56.2506 290.5,55.5 Z"/></g>
<g><path style="opacity:1" fill="#a5a5a5" d="M 22.5,51.5 C 22.5,57.5 22.5,63.5 22.5,69.5C 30.6841,69.1743 38.6841,69.5076 46.5,70.5C 38.1667,70.5 29.8333,70.5 21.5,70.5C 21.1765,63.9779 21.5098,57.6446 22.5,51.5 Z"/></g>
<g><path style="opacity:1" fill="#c2c2c2" d="M 47.5,79.5 C 41.537,80.8298 35.2037,81.4964 28.5,81.5C 21.991,81.4996 15.6576,81.1662 9.5,80.5C 22.2464,80.8131 34.913,80.4798 47.5,79.5 Z"/></g>
</svg>
